<?xml version="1.0" standalone="no"?>
<!DOCTYPE svg PUBLIC "-//W3C//DTD SVG 20010904//EN"
 "http://www.w3.org/TR/2001/REC-SVG-20010904/DTD/svg10.dtd">
<svg version="1.0" xmlns="http://www.w3.org/2000/svg"
 width="300.000000pt" height="300.000000pt" viewBox="0 0 300.000000 300.000000"
 preserveAspectRatio="xMidYMid meet">
<metadata>
Created by potrace 1.10, written by Peter Selinger 2001-2011
</metadata>
<g transform="translate(0.000000,300.000000) scale(0.100000,-0.100000)"
fill="#000000" stroke="none">
<path d="M715 2418 c-57 -44 -55 -15 -54 -935 0 -630 3 -857 12 -882 7 -19 25
-44 40 -55 28 -21 37 -21 660 -24 441 -2 644 0 670 8 58 17 106 110 57 110
-11 0 -20 -6 -20 -13 0 -7 -9 -23 -20 -35 l-21 -22 -644 0 c-632 0 -645 0
-665 20 -20 20 -20 33 -20 894 l0 875 26 20 c26 21 36 21 503 21 l476 0 0
-138 c0 -212 10 -222 224 -222 l141 0 0 -316 0 -315 23 3 c12 2 22 9 21 16 -1
6 -2 154 -2 328 l-2 316 -187 184 -188 184 -501 0 c-499 0 -501 0 -529 -22z
m1189 -193 l149 -145 -125 0 c-166 0 -165 -1 -170 168 -2 67 -3 122 -3 122 0
0 67 -65 149 -145z"/>
<path d="M900 1939 c0 -52 3 -70 13 -67 7 3 13 29 15 71 2 55 0 67 -13 67 -12
0 -15 -14 -15 -71z"/>
<path d="M960 1941 c0 -58 3 -71 16 -71 13 0 15 8 9 50 -4 28 -4 50 -1 50 3 0
17 -22 31 -50 37 -73 55 -67 55 20 0 56 -3 70 -15 70 -11 0 -15 -12 -15 -47
l0 -48 -24 45 c-13 25 -31 46 -40 48 -13 3 -16 -8 -16 -67z"/>
<path d="M1090 2002 c0 -4 9 -36 21 -71 27 -81 45 -78 75 12 22 64 22 67 4 67
-13 0 -20 -10 -25 -38 -10 -63 -20 -66 -34 -12 -8 30 -18 50 -27 50 -8 0 -14
-4 -14 -8z"/>
<path d="M1236 1994 c-25 -24 -21 -90 6 -108 30 -21 54 -20 78 4 26 26 26 81
2 103 -23 21 -66 22 -86 1z m63 -18 c7 -8 11 -27 9 -43 -2 -22 -8 -28 -28 -28
-20 0 -26 6 -28 28 -6 53 20 76 47 43z"/>
<path d="M1370 1939 c0 -52 3 -70 13 -67 18 7 19 138 0 138 -10 0 -13 -18 -13
-71z"/>
<path d="M1436 1988 c-44 -62 9 -138 78 -112 24 9 9 24 -24 24 -24 0 -31 5
-36 27 -9 34 7 58 37 58 39 0 37 20 -3 23 -28 2 -40 -2 -52 -20z"/>
<path d="M1550 1940 l0 -70 45 0 c33 0 45 4 45 15 0 10 -11 15 -35 15 -24 0
-35 5 -35 15 0 10 10 15 30 15 20 0 30 5 30 15 0 10 -10 15 -31 15 -20 0 -29
4 -26 13 2 6 17 12 32 12 16 0 30 6 32 13 3 8 -9 12 -41 12 l-46 0 0 -70z"/>
<path d="M1617 1617 c-18 -18 -103 -106 -190 -195 l-159 -163 -58 55 c-50 48
-64 56 -97 56 -48 0 -81 -22 -99 -66 -21 -51 -2 -83 118 -201 98 -96 108 -103
145 -103 25 0 49 7 61 18 40 34 422 514 428 537 7 27 -18 80 -41 89 -40 15
-77 6 -108 -27z m103 -27 c6 -11 8 -26 4 -32 -17 -28 -388 -484 -406 -500 -36
-32 -57 -22 -164 84 -109 107 -122 132 -87 170 30 33 60 22 134 -49 l69 -67
169 176 c93 96 182 189 196 206 31 37 69 42 85 12z"/>
<path d="M1985 1373 c-122 -28 -135 -41 -135 -133 0 -63 2 -70 20 -70 15 0 20
7 20 29 l0 29 43 -16 c58 -21 256 -21 315 0 l42 16 0 -38 c0 -49 -26 -61 -146
-69 l-92 -6 34 -39 34 -40 68 11 c37 6 75 14 85 18 16 7 18 3 15 -31 -3 -34
-7 -40 -38 -51 -19 -6 -51 -14 -71 -18 -31 -5 -36 -9 -32 -25 7 -25 58 -23
126 5 14 6 17 2 17 -29 0 -41 -14 -52 -92 -66 -47 -9 -67 -22 -68 -42 0 -13
53 -9 106 7 27 8 50 15 52 15 1 0 2 -16 2 -36 0 -31 -4 -37 -36 -50 -20 -9
-69 -18 -108 -21 -50 -5 -76 -12 -91 -26 -20 -19 -19 -19 77 -15 75 4 107 10
145 29 l48 24 2 292 3 292 -33 19 c-17 11 -56 25 -85 31 -52 11 -187 13 -227
4z m264 -59 c57 -22 52 -40 -16 -60 -43 -13 -83 -15 -172 -12 -115 5 -171 19
-171 44 0 13 65 40 115 48 56 8 204 -4 244 -20z"/>
<path d="M1808 1126 c-83 -30 -139 -93 -157 -177 -45 -209 202 -365 372 -235
50 39 92 125 90 190 -2 160 -159 274 -305 222z m124 -36 c114 -32 171 -167
117 -278 -44 -90 -160 -128 -254 -82 -125 60 -142 240 -31 325 56 43 104 52
168 35z"/>
<path d="M1831 994 c-17 -14 -31 -32 -31 -40 0 -8 -9 -14 -20 -14 -11 0 -20
-7 -20 -15 0 -8 7 -15 15 -15 8 0 15 -4 15 -10 0 -5 -7 -10 -15 -10 -8 0 -15
-7 -15 -15 0 -8 8 -15 18 -15 11 0 24 -11 29 -23 11 -24 68 -57 98 -57 27 0
55 19 49 34 -3 8 -20 13 -44 12 -25 0 -46 6 -57 17 -16 16 -15 17 26 17 35 0
42 3 39 17 -2 14 -12 17 -45 15 -22 -2 -44 1 -48 7 -4 7 11 11 44 11 39 0 51
4 51 15 0 11 -11 15 -40 15 -22 0 -40 3 -40 6 0 16 38 33 73 34 30 0 37 4 37
20 0 32 -79 28 -119 -6z"/>
<path d="M902 833 c3 -17 26 -18 323 -18 297 0 320 1 323 18 3 16 -17 17 -323
17 -306 0 -326 -1 -323 -17z"/>
<path d="M1250 350 c-17 -11 -25 -10 160 -13 173 -2 270 3 240 13 -36 12 -382
12 -400 0z"/>
</g>
</svg>
